Coordinates
version=1
nRows=42
nColumns=11
inDegrees=yes

Units are S.I. units (second, meters, Newtons, ...)
If the header above contains a line with 'inDegrees', this indicates whether rotational values are in degrees (yes) or radians (no).

endheader
time	pelvis_tilt	pelvis_tx	pelvis_ty	hip_flexion_l	hip_flexion_r	knee_angle_l	knee_angle_r	ankle_angle_l	ankle_angle_r	lumbar_extension
      1.01000000	      1.26127681	     -1.85676216	      0.88238000	     -8.15378595	     34.03613634	    -15.63308416	    -25.95101972	     18.27551887	      6.64321935	    -20.77024614
      1.02000000	      1.75005946	     -1.84459194	      0.87983531	     -9.47869991	     33.46918939	    -15.80261337	    -24.69783156	     18.66509032	      6.46254957	    -20.91499262
      1.03000000	      2.19462958	     -1.83225368	      0.87720278	    -10.64399699	     32.84155195	    -16.20941184	    -23.58914449	     19.09723907	      6.25155672	    -20.96899615
      1.04000000	      2.62701743	     -1.81936703	      0.87471491	    -11.85720799	     32.13973924	    -16.55336869	    -22.63294860	     19.46784859	      5.69119721	    -20.91368302
      1.05000000	      3.03255681	     -1.80627937	      0.87214093	    -12.96499617	     31.36135864	    -17.03010192	    -21.89909917	     19.54432034	      4.56057741	    -20.81704328
      1.06000000	      3.16821601	     -1.79356704	      0.86941930	    -13.58834406	     30.94373805	    -17.86348308	    -21.85648974	     19.73736390	      0.62203263	    -20.46564442
      1.07000000	      2.93055436	     -1.78160058	      0.86681242	    -13.54931096	     31.31478082	    -19.04959052	    -23.95511002	     19.62471421	     -0.51897749	    -19.81087264
      1.08000000	      2.75236380	     -1.76949323	      0.86465941	    -13.50256673	     31.92458528	    -20.38096689	    -26.47130978	     19.18187648	      0.27512768	    -19.25091682
      1.09000000	      2.40096212	     -1.75772708	      0.86253703	    -13.10373289	     32.90922487	    -21.98883814	    -28.60577278	     18.94986491	      0.35595014	    -18.53515220
      1.10000000	      1.93173996	     -1.74638506	      0.86091606	    -12.44743718	     33.87676819	    -23.72127346	    -30.20215075	     18.05584170	     -0.73027398	    -17.79501503
      1.11000000	      1.58622418	     -1.73466788	      0.85986579	    -11.91328299	     34.34129510	    -25.46012424	    -31.51431289	     17.09569686	     -1.81850941	    -17.14734559
      1.12000000	      1.21553565	     -1.72330025	      0.85936647	    -11.20386225	     34.51297901	    -27.36578289	    -32.61959749	     15.78040122	     -1.91988433	    -16.54323360
      1.13000000	      0.76850244	     -1.71190817	      0.85919705	    -10.30300490	     34.55760242	    -29.34199846	    -33.33002953	     14.14065655	     -1.70589645	    -15.85140887
      1.14000000	      0.25558509	     -1.70037905	      0.85907767	     -9.27122431	     34.47565056	    -31.34607283	    -33.57447318	     12.42923006	     -1.97593421	    -15.08298147
      1.15000000	     -0.21684692	     -1.68886897	      0.85911449	     -8.17342113	     34.43642922	    -33.40446879	    -34.07298749	     10.44403879	     -1.40270884	    -14.37244481
      1.16000000	     -0.75582008	     -1.67751505	      0.85915091	     -6.87726957	     34.43719501	    -35.50858937	    -34.54218829	      8.19283908	     -0.77458763	    -13.61837476
      1.17000000	     -1.05559082	     -1.66600026	      0.85992552	     -5.81385880	     34.13239955	    -37.59094936	    -34.96802006	      5.91363497	     -0.21306500	    -13.12960544
      1.18000000	     -1.35724624	     -1.65491218	      0.86096514	     -4.63341211	     33.80508617	    -39.68885456	    -35.27710584	      3.13517465	      0.36043786	    -12.66401254
      1.19000000	     -1.63780496	     -1.64402089	      0.86226395	     -3.33282411	     33.40875126	    -41.99062572	    -35.46085982	      0.46633020	      1.01318238	    -12.18861979
      1.20000000	     -1.75039918	     -1.63320308	      0.86408726	     -2.13344911	     32.78537655	    -44.17195350	    -35.58122862	     -2.47896750	      1.54381144	    -11.86149578
      1.21000000	     -1.70851536	     -1.62230793	      0.86629596	     -1.01839564	     31.93112357	    -46.35250735	    -35.58519395	     -5.36254780	      2.21210084	    -11.67111569
      1.22000000	     -1.53644626	     -1.61131885	      0.86881868	     -0.04247143	     30.86965977	    -48.38874015	    -35.48449642	     -7.86505099	      2.91596029	    -11.52669035
      1.23000000	     -1.44766341	     -1.60054921	      0.87125771	      1.18756754	     29.84410150	    -50.50205975	    -35.25363033	    -10.61071411	      3.51613549	    -11.28354225
      1.24000000	     -1.38254034	     -1.58977577	      0.87378405	      2.47912983	     28.78461540	    -52.58922797	    -34.89480369	    -12.85247867	      4.00897679	    -10.95419394
      1.25000000	     -1.16038385	     -1.57897385	      0.87670201	      3.58745260	     27.47263237	    -54.52540271	    -34.41717183	    -14.75011607	      4.59908335	    -10.80006652
      1.26000000	     -0.99506051	     -1.56819642	      0.87957200	      4.83816067	     26.19388437	    -56.43959029	    -33.83085652	    -15.86368596	      5.06901653	    -10.55817142
      1.27000000	     -0.83056970	     -1.55756726	      0.88246522	      6.13631119	     24.89732693	    -58.27456625	    -33.20637483	    -16.53768890	      5.62114344	    -10.32375821
      1.28000000	     -0.73424894	     -1.54713113	      0.88521382	      7.52861604	     23.65198582	    -59.88884937	    -32.51301116	    -17.23851039	      6.01149449	    -10.04305188
      1.29000000	     -0.54800283	     -1.53672570	      0.88814879	      8.85245154	     22.26053338	    -61.39227478	    -31.71261623	    -17.97689514	      6.36123795	     -9.83714512
      1.30000000	     -0.34382783	     -1.52644260	      0.89109512	     10.17783794	     20.81143500	    -62.74883767	    -30.81711558	    -18.50394711	      6.55998433	     -9.68374990
      1.31000000	     -0.16279899	     -1.51629696	      0.89385573	     11.54154878	     19.35475385	    -63.98055562	    -29.81658620	    -19.03373283	      6.80594646	     -9.52765169
      1.32000000	      0.06544287	     -1.50621109	      0.89665221	     12.84276624	     17.84006038	    -65.12910516	    -28.80565030	    -19.32296978	      6.92693661	     -9.42936305
      1.33000000	      0.33180476	     -1.49623599	      0.89919381	     14.15984682	     16.31036814	    -66.19500292	    -27.83481608	    -19.35250907	      7.06675340	     -9.36090999
      1.34000000	      0.49611934	     -1.48653264	      0.90157222	     15.58196164	     14.88048494	    -67.16970469	    -26.77704794	    -19.34394139	      7.12201888	     -9.23682707
      1.35000000	      0.78699782	     -1.47693093	      0.90379531	     16.87337158	     13.34344363	    -68.05759736	    -25.78401822	    -18.91586335	      7.29015226	     -9.30221706
      1.36000000	      1.13688121	     -1.46747437	      0.90586216	     18.13267969	     11.75427235	    -68.88243801	    -24.78763379	    -18.32522753	      7.44085545	     -9.48971356
      1.37000000	      1.49233533	     -1.45834660	      0.90777833	     19.37341868	     10.19627151	    -69.62496578	    -23.81716405	    -17.57561630	      7.52065985	     -9.73621764
      1.38000000	      1.76621849	     -1.44923858	      0.90911147	     20.76364162	      8.75956271	    -70.38476711	    -22.86478220	    -16.72745330	      7.70376236	     -9.91615887
      1.39000000	      2.09903913	     -1.44029619	      0.91037088	     22.04958194	      7.30600551	    -70.96893675	    -22.01046806	    -15.84859218	      7.89100895	    -10.22086864
      1.40000000	      2.34523361	     -1.43154909	      0.91113309	     23.46340323	      6.03870475	    -71.51166011	    -21.29335056	    -14.87917819	      8.29906608	    -10.45916264
      1.41000000	      2.59495487	     -1.42290900	      0.91174692	     24.84702626	      4.80359740	    -71.96174337	    -20.66165957	    -13.88665332	      8.54249896	    -10.72555359
      1.42000000	      2.81979326	     -1.41437572	      0.91206276	     26.23924456	      3.63809384	    -72.27308777	    -20.06603450	    -12.69548108	      8.89514115	    -10.99210874
